<mxfile host="app.diagrams.net" modified="2022-12-08T10:31:32.658Z" agent="5.0 (Windows NT 10.0; Win64; x64) AppleWebKit/537.36 (KHTML, like Gecko) Chrome/108.0.0.0 Safari/537.36" etag="y6qKyYW2UIu6-zGrvpxf" version="20.6.0" type="github">
  <diagram id="R2lEEEUBdFMjLlhIrx00" name="Page-1">
    <mxGraphModel dx="1718" dy="682" grid="1" gridSize="10" guides="1" tooltips="1" connect="1" arrows="1" fold="1" page="1" pageScale="1" pageWidth="850" pageHeight="1100" math="0" shadow="0" extFonts="Permanent Marker^https://fonts.googleapis.com/css?family=Permanent+Marker">
      <root>
        <mxCell id="0" />
        <mxCell id="1" parent="0" />
        <mxCell id="i1fImPro99F-rHj58Ylj-27" style="edgeStyle=none;shape=connector;rounded=0;orthogonalLoop=1;jettySize=auto;html=1;exitX=0.75;exitY=1;exitDx=0;exitDy=0;entryX=0.5;entryY=0;entryDx=0;entryDy=0;labelBackgroundColor=default;strokeColor=default;fontFamily=Helvetica;fontSize=11;fontColor=default;endArrow=none;endFill=0;" edge="1" parent="1" source="i1fImPro99F-rHj58Ylj-1" target="i1fImPro99F-rHj58Ylj-25">
          <mxGeometry relative="1" as="geometry" />
        </mxCell>
        <mxCell id="i1fImPro99F-rHj58Ylj-1" value="학과" style="rounded=0;whiteSpace=wrap;html=1;" vertex="1" parent="1">
          <mxGeometry x="270" y="40" width="120" height="60" as="geometry" />
        </mxCell>
        <mxCell id="i1fImPro99F-rHj58Ylj-7" value="" style="rounded=0;orthogonalLoop=1;jettySize=auto;html=1;endArrow=none;endFill=0;" edge="1" parent="1" source="i1fImPro99F-rHj58Ylj-2" target="i1fImPro99F-rHj58Ylj-1">
          <mxGeometry relative="1" as="geometry" />
        </mxCell>
        <mxCell id="i1fImPro99F-rHj58Ylj-2" value="소속 교수&lt;br&gt;(FK)" style="ellipse;whiteSpace=wrap;html=1;" vertex="1" parent="1">
          <mxGeometry x="291" y="115" width="60" height="30" as="geometry" />
        </mxCell>
        <mxCell id="i1fImPro99F-rHj58Ylj-8" style="orthogonalLoop=1;jettySize=auto;html=1;exitX=0;exitY=0;exitDx=0;exitDy=0;entryX=1;entryY=1;entryDx=0;entryDy=0;endArrow=none;endFill=0;rounded=0;" edge="1" parent="1" source="i1fImPro99F-rHj58Ylj-3" target="i1fImPro99F-rHj58Ylj-1">
          <mxGeometry relative="1" as="geometry" />
        </mxCell>
        <mxCell id="i1fImPro99F-rHj58Ylj-3" value="소속 학생&lt;br&gt;(FK)" style="ellipse;whiteSpace=wrap;html=1;" vertex="1" parent="1">
          <mxGeometry x="414" y="114" width="60" height="30" as="geometry" />
        </mxCell>
        <mxCell id="i1fImPro99F-rHj58Ylj-9" style="edgeStyle=none;shape=connector;rounded=0;orthogonalLoop=1;jettySize=auto;html=1;exitX=1;exitY=0;exitDx=0;exitDy=0;entryX=0.167;entryY=1;entryDx=0;entryDy=0;entryPerimeter=0;labelBackgroundColor=default;strokeColor=default;fontFamily=Helvetica;fontSize=11;fontColor=default;endArrow=none;endFill=0;" edge="1" parent="1" source="i1fImPro99F-rHj58Ylj-4" target="i1fImPro99F-rHj58Ylj-1">
          <mxGeometry relative="1" as="geometry" />
        </mxCell>
        <mxCell id="i1fImPro99F-rHj58Ylj-4" value="학과번호" style="ellipse;whiteSpace=wrap;html=1;fontStyle=4" vertex="1" parent="1">
          <mxGeometry x="166" y="114" width="60" height="30" as="geometry" />
        </mxCell>
        <mxCell id="i1fImPro99F-rHj58Ylj-6" value="" style="rounded=0;orthogonalLoop=1;jettySize=auto;html=1;endArrow=none;endFill=0;" edge="1" parent="1" source="i1fImPro99F-rHj58Ylj-5" target="i1fImPro99F-rHj58Ylj-1">
          <mxGeometry relative="1" as="geometry" />
        </mxCell>
        <mxCell id="i1fImPro99F-rHj58Ylj-5" value="학과명" style="ellipse;whiteSpace=wrap;html=1;" vertex="1" parent="1">
          <mxGeometry x="230" y="114" width="60" height="30" as="geometry" />
        </mxCell>
        <mxCell id="i1fImPro99F-rHj58Ylj-23" value="" style="edgeStyle=none;shape=connector;rounded=0;orthogonalLoop=1;jettySize=auto;html=1;labelBackgroundColor=default;strokeColor=default;fontFamily=Helvetica;fontSize=11;fontColor=default;endArrow=none;endFill=0;" edge="1" parent="1" source="i1fImPro99F-rHj58Ylj-10" target="i1fImPro99F-rHj58Ylj-16">
          <mxGeometry relative="1" as="geometry" />
        </mxCell>
        <mxCell id="i1fImPro99F-rHj58Ylj-10" value="교수" style="rounded=0;whiteSpace=wrap;html=1;fontFamily=Helvetica;fontSize=11;fontColor=default;" vertex="1" parent="1">
          <mxGeometry x="50" y="200" width="120" height="60" as="geometry" />
        </mxCell>
        <mxCell id="i1fImPro99F-rHj58Ylj-17" value="" style="edgeStyle=none;shape=connector;rounded=0;orthogonalLoop=1;jettySize=auto;html=1;labelBackgroundColor=default;strokeColor=default;fontFamily=Helvetica;fontSize=11;fontColor=default;endArrow=none;endFill=0;startArrow=ERmany;startFill=0;" edge="1" parent="1" source="i1fImPro99F-rHj58Ylj-11" target="i1fImPro99F-rHj58Ylj-15">
          <mxGeometry relative="1" as="geometry" />
        </mxCell>
        <mxCell id="i1fImPro99F-rHj58Ylj-11" value="대학생" style="rounded=0;whiteSpace=wrap;html=1;fontFamily=Helvetica;fontSize=11;fontColor=default;" vertex="1" parent="1">
          <mxGeometry x="400" y="200" width="120" height="60" as="geometry" />
        </mxCell>
        <mxCell id="i1fImPro99F-rHj58Ylj-12" value="강의" style="rounded=0;whiteSpace=wrap;html=1;fontFamily=Helvetica;fontSize=11;fontColor=default;" vertex="1" parent="1">
          <mxGeometry x="261" y="340" width="120" height="60" as="geometry" />
        </mxCell>
        <mxCell id="i1fImPro99F-rHj58Ylj-20" value="" style="edgeStyle=none;shape=connector;rounded=0;orthogonalLoop=1;jettySize=auto;html=1;labelBackgroundColor=default;strokeColor=default;fontFamily=Helvetica;fontSize=11;fontColor=default;endArrow=none;endFill=0;entryX=0;entryY=0.5;entryDx=0;entryDy=0;" edge="1" parent="1" source="i1fImPro99F-rHj58Ylj-13" target="i1fImPro99F-rHj58Ylj-1">
          <mxGeometry relative="1" as="geometry">
            <mxPoint x="260" y="72.85714285714289" as="targetPoint" />
          </mxGeometry>
        </mxCell>
        <mxCell id="i1fImPro99F-rHj58Ylj-22" value="" style="edgeStyle=none;shape=connector;rounded=0;orthogonalLoop=1;jettySize=auto;html=1;labelBackgroundColor=default;strokeColor=default;fontFamily=Helvetica;fontSize=11;fontColor=default;endArrow=ERmany;endFill=0;" edge="1" parent="1" source="i1fImPro99F-rHj58Ylj-13" target="i1fImPro99F-rHj58Ylj-10">
          <mxGeometry relative="1" as="geometry" />
        </mxCell>
        <mxCell id="i1fImPro99F-rHj58Ylj-13" value="소속" style="rhombus;whiteSpace=wrap;html=1;fontFamily=Helvetica;fontSize=11;fontColor=default;" vertex="1" parent="1">
          <mxGeometry x="70" y="40" width="80" height="80" as="geometry" />
        </mxCell>
        <mxCell id="i1fImPro99F-rHj58Ylj-18" value="" style="edgeStyle=none;shape=connector;rounded=0;orthogonalLoop=1;jettySize=auto;html=1;labelBackgroundColor=default;strokeColor=default;fontFamily=Helvetica;fontSize=11;fontColor=default;endArrow=ERmany;endFill=0;" edge="1" parent="1" source="i1fImPro99F-rHj58Ylj-15" target="i1fImPro99F-rHj58Ylj-1">
          <mxGeometry relative="1" as="geometry" />
        </mxCell>
        <mxCell id="i1fImPro99F-rHj58Ylj-15" value="전공/소속" style="rhombus;whiteSpace=wrap;html=1;fontFamily=Helvetica;fontSize=11;fontColor=default;" vertex="1" parent="1">
          <mxGeometry x="430" y="30" width="80" height="80" as="geometry" />
        </mxCell>
        <mxCell id="i1fImPro99F-rHj58Ylj-24" value="" style="edgeStyle=none;shape=connector;rounded=0;orthogonalLoop=1;jettySize=auto;html=1;labelBackgroundColor=default;strokeColor=default;fontFamily=Helvetica;fontSize=11;fontColor=default;endArrow=ERmany;endFill=0;" edge="1" parent="1" source="i1fImPro99F-rHj58Ylj-16" target="i1fImPro99F-rHj58Ylj-11">
          <mxGeometry relative="1" as="geometry" />
        </mxCell>
        <mxCell id="i1fImPro99F-rHj58Ylj-16" value="지도관계" style="rhombus;whiteSpace=wrap;html=1;fontFamily=Helvetica;fontSize=11;fontColor=default;" vertex="1" parent="1">
          <mxGeometry x="240" y="190" width="80" height="80" as="geometry" />
        </mxCell>
        <mxCell id="i1fImPro99F-rHj58Ylj-21" style="edgeStyle=none;shape=connector;rounded=0;orthogonalLoop=1;jettySize=auto;html=1;exitX=1;exitY=0;exitDx=0;exitDy=0;entryX=0.875;entryY=0.375;entryDx=0;entryDy=0;entryPerimeter=0;labelBackgroundColor=default;strokeColor=default;fontFamily=Helvetica;fontSize=11;fontColor=default;endArrow=none;endFill=0;" edge="1" parent="1" source="i1fImPro99F-rHj58Ylj-13" target="i1fImPro99F-rHj58Ylj-13">
          <mxGeometry relative="1" as="geometry" />
        </mxCell>
        <mxCell id="i1fImPro99F-rHj58Ylj-25" value="전공강의&lt;br&gt;(FK)" style="ellipse;whiteSpace=wrap;html=1;" vertex="1" parent="1">
          <mxGeometry x="352" y="120" width="60" height="30" as="geometry" />
        </mxCell>
        <mxCell id="i1fImPro99F-rHj58Ylj-40" style="edgeStyle=none;shape=connector;rounded=0;orthogonalLoop=1;jettySize=auto;html=1;exitX=0.5;exitY=0;exitDx=0;exitDy=0;entryX=0.25;entryY=1;entryDx=0;entryDy=0;labelBackgroundColor=default;strokeColor=default;fontFamily=Helvetica;fontSize=11;fontColor=default;endArrow=none;endFill=0;" edge="1" parent="1" source="i1fImPro99F-rHj58Ylj-29">
          <mxGeometry relative="1" as="geometry">
            <mxPoint x="60" y="261.02" as="targetPoint" />
          </mxGeometry>
        </mxCell>
        <mxCell id="i1fImPro99F-rHj58Ylj-29" value="&lt;u&gt;교수번호&lt;/u&gt;" style="ellipse;whiteSpace=wrap;html=1;fontFamily=Helvetica;fontSize=11;fontColor=default;" vertex="1" parent="1">
          <mxGeometry x="30" y="271.02" width="50" height="30" as="geometry" />
        </mxCell>
        <mxCell id="i1fImPro99F-rHj58Ylj-41" style="edgeStyle=none;shape=connector;rounded=0;orthogonalLoop=1;jettySize=auto;html=1;exitX=0.5;exitY=0;exitDx=0;exitDy=0;entryX=0.5;entryY=1;entryDx=0;entryDy=0;labelBackgroundColor=default;strokeColor=default;fontFamily=Helvetica;fontSize=11;fontColor=default;endArrow=none;endFill=0;" edge="1" parent="1" source="i1fImPro99F-rHj58Ylj-37">
          <mxGeometry relative="1" as="geometry">
            <mxPoint x="90" y="261.02" as="targetPoint" />
          </mxGeometry>
        </mxCell>
        <mxCell id="i1fImPro99F-rHj58Ylj-37" value="이름" style="ellipse;whiteSpace=wrap;html=1;fontFamily=Helvetica;fontSize=11;fontColor=default;" vertex="1" parent="1">
          <mxGeometry x="80" y="271.02" width="50" height="30" as="geometry" />
        </mxCell>
        <mxCell id="i1fImPro99F-rHj58Ylj-42" style="edgeStyle=none;shape=connector;rounded=0;orthogonalLoop=1;jettySize=auto;html=1;exitX=0;exitY=0;exitDx=0;exitDy=0;entryX=0.717;entryY=0.983;entryDx=0;entryDy=0;entryPerimeter=0;labelBackgroundColor=default;strokeColor=default;fontFamily=Helvetica;fontSize=11;fontColor=default;endArrow=none;endFill=0;" edge="1" parent="1" source="i1fImPro99F-rHj58Ylj-38">
          <mxGeometry relative="1" as="geometry">
            <mxPoint x="116.03999999999996" y="260.0000000000001" as="targetPoint" />
          </mxGeometry>
        </mxCell>
        <mxCell id="i1fImPro99F-rHj58Ylj-38" value="주민번호" style="ellipse;whiteSpace=wrap;html=1;fontFamily=Helvetica;fontSize=11;fontColor=default;" vertex="1" parent="1">
          <mxGeometry x="130" y="271.02" width="50" height="30" as="geometry" />
        </mxCell>
        <mxCell id="i1fImPro99F-rHj58Ylj-43" style="edgeStyle=none;shape=connector;rounded=0;orthogonalLoop=1;jettySize=auto;html=1;exitX=0;exitY=0;exitDx=0;exitDy=0;entryX=0.913;entryY=1.017;entryDx=0;entryDy=0;entryPerimeter=0;labelBackgroundColor=default;strokeColor=default;fontFamily=Helvetica;fontSize=11;fontColor=default;endArrow=none;endFill=0;" edge="1" parent="1" source="i1fImPro99F-rHj58Ylj-39">
          <mxGeometry relative="1" as="geometry">
            <mxPoint x="139.55999999999995" y="262.03999999999996" as="targetPoint" />
          </mxGeometry>
        </mxCell>
        <mxCell id="i1fImPro99F-rHj58Ylj-39" value="학과(전공)" style="ellipse;whiteSpace=wrap;html=1;fontFamily=Helvetica;fontSize=11;fontColor=default;" vertex="1" parent="1">
          <mxGeometry x="180" y="271.02" width="60" height="30" as="geometry" />
        </mxCell>
        <mxCell id="i1fImPro99F-rHj58Ylj-46" style="edgeStyle=none;shape=connector;rounded=0;orthogonalLoop=1;jettySize=auto;html=1;exitX=0.5;exitY=0;exitDx=0;exitDy=0;entryX=0.179;entryY=1;entryDx=0;entryDy=0;entryPerimeter=0;labelBackgroundColor=default;strokeColor=default;fontFamily=Helvetica;fontSize=11;fontColor=default;endArrow=none;endFill=0;" edge="1" parent="1" source="i1fImPro99F-rHj58Ylj-44" target="i1fImPro99F-rHj58Ylj-11">
          <mxGeometry relative="1" as="geometry" />
        </mxCell>
        <mxCell id="i1fImPro99F-rHj58Ylj-44" value="&lt;u&gt;학번&lt;/u&gt;" style="ellipse;whiteSpace=wrap;html=1;fontFamily=Helvetica;fontSize=11;fontColor=default;" vertex="1" parent="1">
          <mxGeometry x="402" y="270" width="28" height="20" as="geometry" />
        </mxCell>
        <mxCell id="i1fImPro99F-rHj58Ylj-47" style="edgeStyle=none;shape=connector;rounded=0;orthogonalLoop=1;jettySize=auto;html=1;exitX=0.5;exitY=0;exitDx=0;exitDy=0;entryX=0.358;entryY=1.008;entryDx=0;entryDy=0;entryPerimeter=0;labelBackgroundColor=default;strokeColor=default;fontFamily=Helvetica;fontSize=11;fontColor=default;endArrow=none;endFill=0;" edge="1" parent="1" source="i1fImPro99F-rHj58Ylj-45" target="i1fImPro99F-rHj58Ylj-11">
          <mxGeometry relative="1" as="geometry" />
        </mxCell>
        <mxCell id="i1fImPro99F-rHj58Ylj-45" value="이름" style="ellipse;whiteSpace=wrap;html=1;fontFamily=Helvetica;fontSize=11;fontColor=default;" vertex="1" parent="1">
          <mxGeometry x="430" y="270" width="38" height="20" as="geometry" />
        </mxCell>
        <mxCell id="i1fImPro99F-rHj58Ylj-50" style="edgeStyle=none;shape=connector;rounded=0;orthogonalLoop=1;jettySize=auto;html=1;exitX=0.5;exitY=0;exitDx=0;exitDy=0;entryX=0.642;entryY=0.983;entryDx=0;entryDy=0;entryPerimeter=0;labelBackgroundColor=default;strokeColor=default;fontFamily=Helvetica;fontSize=11;fontColor=default;endArrow=none;endFill=0;" edge="1" parent="1" source="i1fImPro99F-rHj58Ylj-48" target="i1fImPro99F-rHj58Ylj-11">
          <mxGeometry relative="1" as="geometry" />
        </mxCell>
        <mxCell id="i1fImPro99F-rHj58Ylj-48" value="학과" style="ellipse;whiteSpace=wrap;html=1;fontFamily=Helvetica;fontSize=11;fontColor=default;" vertex="1" parent="1">
          <mxGeometry x="468" y="270" width="38" height="20" as="geometry" />
        </mxCell>
        <mxCell id="i1fImPro99F-rHj58Ylj-51" style="edgeStyle=none;shape=connector;rounded=0;orthogonalLoop=1;jettySize=auto;html=1;exitX=0;exitY=0;exitDx=0;exitDy=0;entryX=0.838;entryY=0.992;entryDx=0;entryDy=0;entryPerimeter=0;labelBackgroundColor=default;strokeColor=default;fontFamily=Helvetica;fontSize=11;fontColor=default;endArrow=none;endFill=0;" edge="1" parent="1" source="i1fImPro99F-rHj58Ylj-49" target="i1fImPro99F-rHj58Ylj-11">
          <mxGeometry relative="1" as="geometry" />
        </mxCell>
        <mxCell id="i1fImPro99F-rHj58Ylj-49" value="주민번호" style="ellipse;whiteSpace=wrap;html=1;fontFamily=Helvetica;fontSize=11;fontColor=default;" vertex="1" parent="1">
          <mxGeometry x="506" y="270" width="54" height="20" as="geometry" />
        </mxCell>
        <mxCell id="i1fImPro99F-rHj58Ylj-53" style="edgeStyle=none;shape=connector;rounded=0;orthogonalLoop=1;jettySize=auto;html=1;exitX=0.5;exitY=0;exitDx=0;exitDy=0;entryX=0.25;entryY=1;entryDx=0;entryDy=0;labelBackgroundColor=default;strokeColor=default;fontFamily=Helvetica;fontSize=11;fontColor=default;endArrow=none;endFill=0;" edge="1" parent="1" source="i1fImPro99F-rHj58Ylj-52" target="i1fImPro99F-rHj58Ylj-11">
          <mxGeometry relative="1" as="geometry" />
        </mxCell>
        <mxCell id="i1fImPro99F-rHj58Ylj-52" value="지도교수" style="ellipse;whiteSpace=wrap;html=1;fontFamily=Helvetica;fontSize=11;fontColor=default;" vertex="1" parent="1">
          <mxGeometry x="402" y="300" width="56" height="30" as="geometry" />
        </mxCell>
        <mxCell id="i1fImPro99F-rHj58Ylj-57" style="edgeStyle=none;shape=connector;rounded=0;orthogonalLoop=1;jettySize=auto;html=1;exitX=0.5;exitY=0;exitDx=0;exitDy=0;entryX=0.425;entryY=1.025;entryDx=0;entryDy=0;entryPerimeter=0;labelBackgroundColor=default;strokeColor=default;fontFamily=Helvetica;fontSize=11;fontColor=default;endArrow=none;endFill=0;" edge="1" parent="1" source="i1fImPro99F-rHj58Ylj-55" target="i1fImPro99F-rHj58Ylj-10">
          <mxGeometry relative="1" as="geometry">
            <Array as="points">
              <mxPoint x="50" y="310" />
            </Array>
          </mxGeometry>
        </mxCell>
        <mxCell id="i1fImPro99F-rHj58Ylj-55" value="지도학생 리스트" style="rounded=0;whiteSpace=wrap;html=1;fontFamily=Helvetica;fontSize=11;fontColor=default;" vertex="1" parent="1">
          <mxGeometry y="320" width="90" height="30" as="geometry" />
        </mxCell>
        <mxCell id="i1fImPro99F-rHj58Ylj-59" style="edgeStyle=none;shape=connector;rounded=0;orthogonalLoop=1;jettySize=auto;html=1;exitX=0.5;exitY=0;exitDx=0;exitDy=0;labelBackgroundColor=default;strokeColor=default;fontFamily=Helvetica;fontSize=11;fontColor=default;endArrow=none;endFill=0;" edge="1" parent="1" source="i1fImPro99F-rHj58Ylj-58" target="i1fImPro99F-rHj58Ylj-55">
          <mxGeometry relative="1" as="geometry" />
        </mxCell>
        <mxCell id="i1fImPro99F-rHj58Ylj-58" value="지도학생 번호" style="ellipse;whiteSpace=wrap;html=1;fontFamily=Helvetica;fontSize=11;fontColor=default;fontStyle=4" vertex="1" parent="1">
          <mxGeometry x="-50" y="370" width="80" height="20" as="geometry" />
        </mxCell>
        <mxCell id="i1fImPro99F-rHj58Ylj-61" value="" style="edgeStyle=none;shape=connector;rounded=0;orthogonalLoop=1;jettySize=auto;html=1;labelBackgroundColor=default;strokeColor=default;fontFamily=Helvetica;fontSize=11;fontColor=default;endArrow=none;endFill=0;" edge="1" parent="1" source="i1fImPro99F-rHj58Ylj-60" target="i1fImPro99F-rHj58Ylj-55">
          <mxGeometry relative="1" as="geometry" />
        </mxCell>
        <mxCell id="i1fImPro99F-rHj58Ylj-60" value="학번&lt;br&gt;(FK)&lt;span style=&quot;color: rgba(0, 0, 0, 0); font-family: monospace; font-size: 0px; text-align: start;&quot;&gt;%3CmxGraphModel%3E%3Croot%3E%3CmxCell%20id%3D%220%22%2F%3E%3CmxCell%20id%3D%221%22%20parent%3D%220%22%2F%3E%3CmxCell%20id%3D%222%22%20value%3D%22%EB%8C%80%ED%95%99%EC%83%9D%22%20style%3D%22rounded%3D0%3BwhiteSpace%3Dwrap%3Bhtml%3D1%3BfontFamily%3DHelvetica%3BfontSize%3D11%3BfontColor%3Ddefault%3B%22%20vertex%3D%221%22%20parent%3D%221%22%3E%3CmxGeometry%20x%3D%22400%22%20y%3D%22200%22%20width%3D%22120%22%20height%3D%2260%22%20as%3D%22geometry%22%2F%3E%3C%2FmxCell%3E%3C%2Froot%3E%3C%2FmxGraphModel%3E&lt;/span&gt;" style="ellipse;whiteSpace=wrap;html=1;fontFamily=Helvetica;fontSize=11;fontColor=default;" vertex="1" parent="1">
          <mxGeometry x="30" y="370" width="30" height="20" as="geometry" />
        </mxCell>
        <mxCell id="i1fImPro99F-rHj58Ylj-63" style="edgeStyle=none;shape=connector;rounded=0;orthogonalLoop=1;jettySize=auto;html=1;exitX=0.5;exitY=0;exitDx=0;exitDy=0;entryX=0.75;entryY=1;entryDx=0;entryDy=0;labelBackgroundColor=default;strokeColor=default;fontFamily=Helvetica;fontSize=11;fontColor=default;endArrow=none;endFill=0;" edge="1" parent="1" source="i1fImPro99F-rHj58Ylj-62" target="i1fImPro99F-rHj58Ylj-55">
          <mxGeometry relative="1" as="geometry" />
        </mxCell>
        <mxCell id="i1fImPro99F-rHj58Ylj-62" value="이름&lt;br&gt;(FK)&lt;span style=&quot;color: rgba(0, 0, 0, 0); font-family: monospace; font-size: 0px; text-align: start;&quot;&gt;%3CmxGraphModel%3E%3Croot%3E%3CmxCell%20id%3D%220%22%2F%3E%3CmxCell%20id%3D%221%22%20parent%3D%220%22%2F%3E%3CmxCell%20id%3D%222%22%20value%3D%22%EB%8C%80%ED%95%99%EC%83%9D%22%20style%3D%22rounded%3D0%3BwhiteSpace%3Dwrap%3Bhtml%3D1%3BfontFamily%3DHelvetica%3BfontSize%3D11%3BfontColor%3Ddefault%3B%22%20vertex%3D%221%22%20parent%3D%221%22%3E%3CmxGeometry%20x%3D%22400%22%20y%3D%22200%22%20width%3D%22120%22%20height%3D%2260%22%20as%3D%22geometry%22%2F%3E%3C%2FmxCell%3E%3C%2Froot%3E%3C%2FmxGraphModel%3E&lt;/span&gt;" style="ellipse;whiteSpace=wrap;html=1;fontFamily=Helvetica;fontSize=11;fontColor=default;" vertex="1" parent="1">
          <mxGeometry x="60" y="370" width="30" height="20" as="geometry" />
        </mxCell>
        <mxCell id="i1fImPro99F-rHj58Ylj-65" value="" style="edgeStyle=none;shape=connector;rounded=0;orthogonalLoop=1;jettySize=auto;html=1;labelBackgroundColor=default;strokeColor=default;fontFamily=Helvetica;fontSize=11;fontColor=default;endArrow=none;endFill=0;" edge="1" parent="1" source="i1fImPro99F-rHj58Ylj-64" target="i1fImPro99F-rHj58Ylj-12">
          <mxGeometry relative="1" as="geometry" />
        </mxCell>
        <mxCell id="i1fImPro99F-rHj58Ylj-64" value="&lt;u&gt;학수번호&lt;/u&gt;" style="ellipse;whiteSpace=wrap;html=1;fontFamily=Helvetica;fontSize=11;fontColor=default;" vertex="1" parent="1">
          <mxGeometry x="216" y="430" width="54" height="30" as="geometry" />
        </mxCell>
        <mxCell id="i1fImPro99F-rHj58Ylj-68" style="edgeStyle=none;shape=connector;rounded=0;orthogonalLoop=1;jettySize=auto;html=1;exitX=0.5;exitY=0;exitDx=0;exitDy=0;entryX=0.324;entryY=1.012;entryDx=0;entryDy=0;entryPerimeter=0;labelBackgroundColor=default;strokeColor=default;fontFamily=Helvetica;fontSize=11;fontColor=default;endArrow=none;endFill=0;" edge="1" parent="1" source="i1fImPro99F-rHj58Ylj-66" target="i1fImPro99F-rHj58Ylj-12">
          <mxGeometry relative="1" as="geometry" />
        </mxCell>
        <mxCell id="i1fImPro99F-rHj58Ylj-66" value="강좌명" style="ellipse;whiteSpace=wrap;html=1;fontFamily=Helvetica;fontSize=11;fontColor=default;" vertex="1" parent="1">
          <mxGeometry x="270" y="430" width="54" height="30" as="geometry" />
        </mxCell>
        <mxCell id="i1fImPro99F-rHj58Ylj-73" style="edgeStyle=none;shape=connector;rounded=0;orthogonalLoop=1;jettySize=auto;html=1;exitX=0;exitY=0;exitDx=0;exitDy=0;entryX=0.681;entryY=1.012;entryDx=0;entryDy=0;entryPerimeter=0;labelBackgroundColor=default;strokeColor=default;fontFamily=Helvetica;fontSize=11;fontColor=default;endArrow=none;endFill=0;" edge="1" parent="1" source="i1fImPro99F-rHj58Ylj-72" target="i1fImPro99F-rHj58Ylj-12">
          <mxGeometry relative="1" as="geometry" />
        </mxCell>
        <mxCell id="i1fImPro99F-rHj58Ylj-72" value="전담 교수" style="ellipse;whiteSpace=wrap;html=1;fontFamily=Helvetica;fontSize=11;fontColor=default;" vertex="1" parent="1">
          <mxGeometry x="381" y="430" width="54" height="30" as="geometry" />
        </mxCell>
        <mxCell id="i1fImPro99F-rHj58Ylj-75" style="edgeStyle=none;shape=connector;rounded=0;orthogonalLoop=1;jettySize=auto;html=1;exitX=0;exitY=0;exitDx=0;exitDy=0;entryX=0.907;entryY=1.036;entryDx=0;entryDy=0;entryPerimeter=0;labelBackgroundColor=default;strokeColor=default;fontFamily=Helvetica;fontSize=11;fontColor=default;endArrow=none;endFill=0;" edge="1" parent="1" source="i1fImPro99F-rHj58Ylj-74" target="i1fImPro99F-rHj58Ylj-12">
          <mxGeometry relative="1" as="geometry" />
        </mxCell>
        <mxCell id="i1fImPro99F-rHj58Ylj-74" value="주관 학과" style="ellipse;whiteSpace=wrap;html=1;fontFamily=Helvetica;fontSize=11;fontColor=default;" vertex="1" parent="1">
          <mxGeometry x="435" y="425" width="55" height="35" as="geometry" />
        </mxCell>
        <mxCell id="i1fImPro99F-rHj58Ylj-78" style="edgeStyle=none;shape=connector;rounded=0;orthogonalLoop=1;jettySize=auto;html=1;exitX=0.25;exitY=0;exitDx=0;exitDy=0;entryX=0.624;entryY=0.988;entryDx=0;entryDy=0;entryPerimeter=0;labelBackgroundColor=default;strokeColor=default;fontFamily=Helvetica;fontSize=11;fontColor=default;startArrow=none;startFill=0;endArrow=none;endFill=0;" edge="1" parent="1" source="i1fImPro99F-rHj58Ylj-76" target="i1fImPro99F-rHj58Ylj-10">
          <mxGeometry relative="1" as="geometry" />
        </mxCell>
        <mxCell id="i1fImPro99F-rHj58Ylj-76" value="전담 강의 리스트" style="rounded=0;whiteSpace=wrap;html=1;fontFamily=Helvetica;fontSize=11;fontColor=default;" vertex="1" parent="1">
          <mxGeometry x="111" y="320" width="89" height="35" as="geometry" />
        </mxCell>
        <mxCell id="i1fImPro99F-rHj58Ylj-81" style="edgeStyle=none;shape=connector;rounded=0;orthogonalLoop=1;jettySize=auto;html=1;exitX=0.5;exitY=0;exitDx=0;exitDy=0;entryX=0.671;entryY=1.024;entryDx=0;entryDy=0;entryPerimeter=0;labelBackgroundColor=default;strokeColor=default;fontFamily=Helvetica;fontSize=11;fontColor=default;startArrow=none;startFill=0;endArrow=none;endFill=0;" edge="1" parent="1" source="i1fImPro99F-rHj58Ylj-80" target="i1fImPro99F-rHj58Ylj-1">
          <mxGeometry relative="1" as="geometry" />
        </mxCell>
        <mxCell id="i1fImPro99F-rHj58Ylj-82" style="edgeStyle=none;shape=connector;rounded=0;orthogonalLoop=1;jettySize=auto;html=1;exitX=0.5;exitY=1;exitDx=0;exitDy=0;entryX=0.75;entryY=0;entryDx=0;entryDy=0;labelBackgroundColor=default;strokeColor=default;fontFamily=Helvetica;fontSize=11;fontColor=default;startArrow=none;startFill=0;endArrow=none;endFill=0;" edge="1" parent="1" source="i1fImPro99F-rHj58Ylj-80" target="i1fImPro99F-rHj58Ylj-12">
          <mxGeometry relative="1" as="geometry" />
        </mxCell>
        <mxCell id="i1fImPro99F-rHj58Ylj-80" value="주관" style="rhombus;whiteSpace=wrap;html=1;fontFamily=Helvetica;fontSize=11;fontColor=default;" vertex="1" parent="1">
          <mxGeometry x="334" y="180" width="40" height="40" as="geometry" />
        </mxCell>
        <mxCell id="i1fImPro99F-rHj58Ylj-86" style="edgeStyle=none;shape=connector;rounded=0;orthogonalLoop=1;jettySize=auto;html=1;exitX=0.5;exitY=1;exitDx=0;exitDy=0;labelBackgroundColor=default;strokeColor=default;fontFamily=Helvetica;fontSize=11;fontColor=default;startArrow=none;startFill=0;endArrow=none;endFill=0;entryX=0;entryY=0.5;entryDx=0;entryDy=0;" edge="1" parent="1" source="i1fImPro99F-rHj58Ylj-83" target="i1fImPro99F-rHj58Ylj-12">
          <mxGeometry relative="1" as="geometry">
            <mxPoint x="245.71428571428567" y="380.7142857142858" as="targetPoint" />
          </mxGeometry>
        </mxCell>
        <mxCell id="i1fImPro99F-rHj58Ylj-87" style="edgeStyle=none;shape=connector;rounded=0;orthogonalLoop=1;jettySize=auto;html=1;exitX=0.5;exitY=0;exitDx=0;exitDy=0;labelBackgroundColor=default;strokeColor=default;fontFamily=Helvetica;fontSize=11;fontColor=default;startArrow=none;startFill=0;endArrow=none;endFill=0;entryX=1;entryY=1;entryDx=0;entryDy=0;" edge="1" parent="1" source="i1fImPro99F-rHj58Ylj-83" target="i1fImPro99F-rHj58Ylj-10">
          <mxGeometry relative="1" as="geometry" />
        </mxCell>
        <mxCell id="i1fImPro99F-rHj58Ylj-83" value="전담" style="rhombus;whiteSpace=wrap;html=1;fontFamily=Helvetica;fontSize=11;fontColor=default;" vertex="1" parent="1">
          <mxGeometry x="240" y="271.02" width="50" height="50" as="geometry" />
        </mxCell>
        <mxCell id="i1fImPro99F-rHj58Ylj-89" value="" style="edgeStyle=none;shape=connector;rounded=0;orthogonalLoop=1;jettySize=auto;html=1;labelBackgroundColor=default;strokeColor=default;fontFamily=Helvetica;fontSize=11;fontColor=default;startArrow=none;startFill=0;endArrow=none;endFill=0;" edge="1" parent="1" source="i1fImPro99F-rHj58Ylj-88" target="i1fImPro99F-rHj58Ylj-11">
          <mxGeometry relative="1" as="geometry" />
        </mxCell>
        <mxCell id="i1fImPro99F-rHj58Ylj-88" value="수강 강좌 리스트" style="rounded=0;whiteSpace=wrap;html=1;fontFamily=Helvetica;fontSize=11;fontColor=default;" vertex="1" parent="1">
          <mxGeometry x="590" y="210" width="100" height="30" as="geometry" />
        </mxCell>
        <mxCell id="i1fImPro99F-rHj58Ylj-92" style="edgeStyle=none;shape=connector;rounded=0;orthogonalLoop=1;jettySize=auto;html=1;exitX=0;exitY=0.5;exitDx=0;exitDy=0;entryX=1;entryY=0.25;entryDx=0;entryDy=0;labelBackgroundColor=default;strokeColor=default;fontFamily=Helvetica;fontSize=11;fontColor=default;startArrow=none;startFill=0;endArrow=none;endFill=0;" edge="1" parent="1" source="i1fImPro99F-rHj58Ylj-90" target="i1fImPro99F-rHj58Ylj-88">
          <mxGeometry relative="1" as="geometry" />
        </mxCell>
        <mxCell id="i1fImPro99F-rHj58Ylj-90" value="번호&lt;br&gt;(인공키)" style="ellipse;whiteSpace=wrap;html=1;fontFamily=Helvetica;fontSize=11;fontColor=default;fontStyle=4" vertex="1" parent="1">
          <mxGeometry x="720" y="170" width="60" height="30" as="geometry" />
        </mxCell>
        <mxCell id="i1fImPro99F-rHj58Ylj-93" style="edgeStyle=none;shape=connector;rounded=0;orthogonalLoop=1;jettySize=auto;html=1;exitX=0;exitY=0.5;exitDx=0;exitDy=0;entryX=1;entryY=0.5;entryDx=0;entryDy=0;labelBackgroundColor=default;strokeColor=default;fontFamily=Helvetica;fontSize=11;fontColor=default;startArrow=none;startFill=0;endArrow=none;endFill=0;" edge="1" parent="1" source="i1fImPro99F-rHj58Ylj-91" target="i1fImPro99F-rHj58Ylj-88">
          <mxGeometry relative="1" as="geometry" />
        </mxCell>
        <mxCell id="i1fImPro99F-rHj58Ylj-91" value="학수번호" style="ellipse;whiteSpace=wrap;html=1;fontFamily=Helvetica;fontSize=11;fontColor=default;" vertex="1" parent="1">
          <mxGeometry x="725" y="200" width="50" height="30" as="geometry" />
        </mxCell>
        <mxCell id="i1fImPro99F-rHj58Ylj-96" style="edgeStyle=none;shape=connector;rounded=0;orthogonalLoop=1;jettySize=auto;html=1;exitX=0.5;exitY=0;exitDx=0;exitDy=0;entryX=0.582;entryY=1.024;entryDx=0;entryDy=0;entryPerimeter=0;labelBackgroundColor=default;strokeColor=default;fontFamily=Helvetica;fontSize=11;fontColor=default;startArrow=none;startFill=0;endArrow=ERmany;endFill=0;" edge="1" parent="1" source="i1fImPro99F-rHj58Ylj-94" target="i1fImPro99F-rHj58Ylj-11">
          <mxGeometry relative="1" as="geometry" />
        </mxCell>
        <mxCell id="i1fImPro99F-rHj58Ylj-97" value="" style="edgeStyle=none;shape=connector;rounded=0;orthogonalLoop=1;jettySize=auto;html=1;labelBackgroundColor=default;strokeColor=default;fontFamily=Helvetica;fontSize=11;fontColor=default;startArrow=none;startFill=0;endArrow=ERmany;endFill=0;" edge="1" parent="1" source="i1fImPro99F-rHj58Ylj-94" target="i1fImPro99F-rHj58Ylj-12">
          <mxGeometry relative="1" as="geometry" />
        </mxCell>
        <mxCell id="i1fImPro99F-rHj58Ylj-94" value="수강" style="rhombus;whiteSpace=wrap;html=1;fontFamily=Helvetica;fontSize=11;fontColor=default;" vertex="1" parent="1">
          <mxGeometry x="440.5" y="340" width="44" height="48.98" as="geometry" />
        </mxCell>
        <mxCell id="i1fImPro99F-rHj58Ylj-99" style="edgeStyle=none;shape=connector;rounded=0;orthogonalLoop=1;jettySize=auto;html=1;exitX=0.5;exitY=0;exitDx=0;exitDy=0;labelBackgroundColor=default;strokeColor=default;fontFamily=Helvetica;fontSize=11;fontColor=default;startArrow=none;startFill=0;endArrow=none;endFill=0;" edge="1" parent="1" source="i1fImPro99F-rHj58Ylj-98" target="i1fImPro99F-rHj58Ylj-76">
          <mxGeometry relative="1" as="geometry" />
        </mxCell>
        <mxCell id="i1fImPro99F-rHj58Ylj-98" value="&lt;u&gt;번호&lt;br&gt;(인공키)&lt;/u&gt;" style="ellipse;whiteSpace=wrap;html=1;fontFamily=Helvetica;fontSize=11;fontColor=default;" vertex="1" parent="1">
          <mxGeometry x="100" y="380" width="50" height="30" as="geometry" />
        </mxCell>
        <mxCell id="i1fImPro99F-rHj58Ylj-100" value="학수번호" style="ellipse;whiteSpace=wrap;html=1;fontFamily=Helvetica;fontSize=11;fontColor=default;" vertex="1" parent="1">
          <mxGeometry x="160" y="380" width="50" height="30" as="geometry" />
        </mxCell>
        <mxCell id="i1fImPro99F-rHj58Ylj-101" style="edgeStyle=none;shape=connector;rounded=0;orthogonalLoop=1;jettySize=auto;html=1;exitX=0.5;exitY=0;exitDx=0;exitDy=0;entryX=0.75;entryY=1;entryDx=0;entryDy=0;labelBackgroundColor=default;strokeColor=default;fontFamily=Helvetica;fontSize=11;fontColor=default;startArrow=none;startFill=0;endArrow=none;endFill=0;" edge="1" parent="1" source="i1fImPro99F-rHj58Ylj-100" target="i1fImPro99F-rHj58Ylj-76">
          <mxGeometry relative="1" as="geometry" />
        </mxCell>
        <mxCell id="i1fImPro99F-rHj58Ylj-104" style="edgeStyle=none;shape=connector;rounded=0;orthogonalLoop=1;jettySize=auto;html=1;exitX=0.5;exitY=0;exitDx=0;exitDy=0;entryX=0.559;entryY=0.996;entryDx=0;entryDy=0;entryPerimeter=0;labelBackgroundColor=default;strokeColor=default;fontFamily=Helvetica;fontSize=11;fontColor=default;startArrow=none;startFill=0;endArrow=none;endFill=0;" edge="1" parent="1" source="i1fImPro99F-rHj58Ylj-102" target="i1fImPro99F-rHj58Ylj-12">
          <mxGeometry relative="1" as="geometry" />
        </mxCell>
        <mxCell id="i1fImPro99F-rHj58Ylj-102" value="수강 학생 리스트" style="rounded=0;whiteSpace=wrap;html=1;fontFamily=Helvetica;fontSize=11;fontColor=default;" vertex="1" parent="1">
          <mxGeometry x="306.5" y="470" width="93.5" height="30" as="geometry" />
        </mxCell>
        <mxCell id="i1fImPro99F-rHj58Ylj-107" style="edgeStyle=none;shape=connector;rounded=0;orthogonalLoop=1;jettySize=auto;html=1;exitX=0.5;exitY=0;exitDx=0;exitDy=0;entryX=0.342;entryY=1.078;entryDx=0;entryDy=0;entryPerimeter=0;labelBackgroundColor=default;strokeColor=default;fontFamily=Helvetica;fontSize=11;fontColor=default;startArrow=none;startFill=0;endArrow=none;endFill=0;" edge="1" parent="1" source="i1fImPro99F-rHj58Ylj-105" target="i1fImPro99F-rHj58Ylj-102">
          <mxGeometry relative="1" as="geometry" />
        </mxCell>
        <mxCell id="i1fImPro99F-rHj58Ylj-105" value="출결번호" style="ellipse;whiteSpace=wrap;html=1;fontFamily=Helvetica;fontSize=11;fontColor=default;" vertex="1" parent="1">
          <mxGeometry x="306.5" y="510" width="60" height="30" as="geometry" />
        </mxCell>
        <mxCell id="i1fImPro99F-rHj58Ylj-108" style="edgeStyle=none;shape=connector;rounded=0;orthogonalLoop=1;jettySize=auto;html=1;exitX=0;exitY=0;exitDx=0;exitDy=0;entryX=0.75;entryY=1;entryDx=0;entryDy=0;labelBackgroundColor=default;strokeColor=default;fontFamily=Helvetica;fontSize=11;fontColor=default;startArrow=none;startFill=0;endArrow=none;endFill=0;" edge="1" parent="1" source="i1fImPro99F-rHj58Ylj-106" target="i1fImPro99F-rHj58Ylj-102">
          <mxGeometry relative="1" as="geometry" />
        </mxCell>
        <mxCell id="i1fImPro99F-rHj58Ylj-106" value="학번" style="ellipse;whiteSpace=wrap;html=1;fontFamily=Helvetica;fontSize=11;fontColor=default;" vertex="1" parent="1">
          <mxGeometry x="374" y="510" width="60" height="30" as="geometry" />
        </mxCell>
        <mxCell id="i1fImPro99F-rHj58Ylj-110" value="&lt;h1&gt;&lt;span style=&quot;font-weight: normal;&quot;&gt;ERD에서 논리적으로 만들 수 있는 리스트는 안그려도 됨. &lt;br&gt;그림에서 수강 강좌 리스트, 수강 학생 리스트, 지도 학생 리스트, 전담 강의 리스트 같은 부분들은 다 데이터베이스에서 검색으로 추출 가능한 부분&lt;/span&gt;&lt;/h1&gt;" style="text;html=1;strokeColor=none;fillColor=none;spacing=5;spacingTop=-20;whiteSpace=wrap;overflow=hidden;rounded=0;fontFamily=Helvetica;fontSize=11;fontColor=default;" vertex="1" parent="1">
          <mxGeometry x="20" y="550" width="720" height="220" as="geometry" />
        </mxCell>
        <mxCell id="i1fImPro99F-rHj58Ylj-111" value="" style="shape=link;html=1;rounded=0;labelBackgroundColor=default;strokeColor=default;fontFamily=Helvetica;fontSize=11;fontColor=default;startArrow=none;startFill=0;endArrow=none;endFill=0;" edge="1" parent="1">
          <mxGeometry width="100" relative="1" as="geometry">
            <mxPoint x="-50" y="420" as="sourcePoint" />
            <mxPoint x="226" y="314.57" as="targetPoint" />
          </mxGeometry>
        </mxCell>
        <mxCell id="i1fImPro99F-rHj58Ylj-112" value="" style="shape=link;html=1;rounded=0;labelBackgroundColor=default;strokeColor=default;fontFamily=Helvetica;fontSize=11;fontColor=default;startArrow=none;startFill=0;endArrow=none;endFill=0;" edge="1" parent="1">
          <mxGeometry width="100" relative="1" as="geometry">
            <mxPoint x="-50" y="310" as="sourcePoint" />
            <mxPoint x="200" y="420" as="targetPoint" />
          </mxGeometry>
        </mxCell>
        <mxCell id="i1fImPro99F-rHj58Ylj-113" value="" style="shape=link;html=1;rounded=0;labelBackgroundColor=default;strokeColor=default;fontFamily=Helvetica;fontSize=11;fontColor=default;startArrow=none;startFill=0;endArrow=none;endFill=0;" edge="1" parent="1">
          <mxGeometry width="100" relative="1" as="geometry">
            <mxPoint x="540" y="270" as="sourcePoint" />
            <mxPoint x="816" y="164.57000000000005" as="targetPoint" />
          </mxGeometry>
        </mxCell>
        <mxCell id="i1fImPro99F-rHj58Ylj-114" value="" style="shape=link;html=1;rounded=0;labelBackgroundColor=default;strokeColor=default;fontFamily=Helvetica;fontSize=11;fontColor=default;startArrow=none;startFill=0;endArrow=none;endFill=0;" edge="1" parent="1">
          <mxGeometry width="100" relative="1" as="geometry">
            <mxPoint x="540" y="160" as="sourcePoint" />
            <mxPoint x="790" y="270" as="targetPoint" />
          </mxGeometry>
        </mxCell>
        <mxCell id="i1fImPro99F-rHj58Ylj-115" value="" style="shape=link;html=1;rounded=0;labelBackgroundColor=default;strokeColor=default;fontFamily=Helvetica;fontSize=11;fontColor=default;startArrow=none;startFill=0;endArrow=none;endFill=0;" edge="1" parent="1">
          <mxGeometry width="100" relative="1" as="geometry">
            <mxPoint x="214" y="570" as="sourcePoint" />
            <mxPoint x="490" y="464.57000000000005" as="targetPoint" />
          </mxGeometry>
        </mxCell>
        <mxCell id="i1fImPro99F-rHj58Ylj-116" value="" style="shape=link;html=1;rounded=0;labelBackgroundColor=default;strokeColor=default;fontFamily=Helvetica;fontSize=11;fontColor=default;startArrow=none;startFill=0;endArrow=none;endFill=0;" edge="1" parent="1">
          <mxGeometry width="100" relative="1" as="geometry">
            <mxPoint x="214" y="460" as="sourcePoint" />
            <mxPoint x="464" y="570" as="targetPoint" />
          </mxGeometry>
        </mxCell>
      </root>
    </mxGraphModel>
  </diagram>
</mxfile>
